<svg width="40" height="40" viewBox="0 0 40 40" fill="none" xmlns="http://www.w3.org/2000/svg">
<circle cx="20" cy="20" r="18" stroke="#171717" stroke-width="4"/>
<mask id="path-2-inside-1_606_8" fill="white">
<path d="M40 20C40 24.9256 38.1823 29.6781 34.8953 33.3465C31.6083 37.015 27.0832 39.3414 22.187 39.8801L21.7509 35.9157C25.6707 35.4845 29.2934 33.622 31.925 30.685C34.5565 27.7481 36.0117 23.9434 36.0117 20H40Z"/>
</mask>
<path d="M40 20C40 24.9256 38.1823 29.6781 34.8953 33.3465C31.6083 37.015 27.0832 39.3414 22.187 39.8801L21.7509 35.9157C25.6707 35.4845 29.2934 33.622 31.925 30.685C34.5565 27.7481 36.0117 23.9434 36.0117 20H40Z" stroke="url(#paint0_linear_606_8)" stroke-width="8" mask="url(#path-2-inside-1_606_8)"/>
<circle cx="20" cy="20" r="19.75" stroke="#202020" stroke-width="0.5"/>
<defs>
<linearGradient id="paint0_linear_606_8" x1="22" y1="40" x2="40" y2="20" gradientUnits="userSpaceOnUse">
<stop stop-color="#FF4A3D"/>
<stop offset="1" stop-color="#FF6B00"/>
</linearGradient>
</defs>
</svg>
